<svg xmlns="http://www.w3.org/2000/svg" viewBox="0 0 1200 800" width="1200" height="800"><defs><filter id="v0" x="0" y="0" width="150" height="800" filterUnits="userSpaceOnUse"><feTurbulence type="fractalNoise" baseFrequency=".12 .0028" numOctaves="4" seed="50" stitchTiles="stitch"/><feColorMatrix values="0.285 0 0 0 0.063  0.166 0 0 0 0.032  0.083 0 0 0 0.016  0 0 0 0 1"/></filter><filter id="v1" x="150" y="0" width="150" height="800" filterUnits="userSpaceOnUse"><feTurbulence type="fractalNoise" baseFrequency=".12 .0028" numOctaves="4" seed="55" stitchTiles="stitch"/><feColorMatrix values="0.285 0 0 0 0.074  0.166 0 0 0 0.038  0.083 0 0 0 0.019  0 0 0 0 1"/></filter><filter id="v2" x="300" y="0" width="150" height="800" filterUnits="userSpaceOnUse"><feTurbulence type="fractalNoise" baseFrequency=".12 .0028" numOctaves="4" seed="60" stitchTiles="stitch"/><feColorMatrix values="0.285 0 0 0 0.059  0.166 0 0 0 0.030  0.083 0 0 0 0.015  0 0 0 0 1"/></filter><filter id="v3" x="450" y="0" width="150" height="800" filterUnits="userSpaceOnUse"><feTurbulence type="fractalNoise" baseFrequency=".12 .0028" numOctaves="4" seed="65" stitchTiles="stitch"/><feColorMatrix values="0.285 0 0 0 0.070  0.166 0 0 0 0.036  0.083 0 0 0 0.018  0 0 0 0 1"/></filter><filter id="v4" x="600" y="0" width="150" height="800" filterUnits="userSpaceOnUse"><feTurbulence type="fractalNoise" baseFrequency=".12 .0028" numOctaves="4" seed="70" stitchTiles="stitch"/><feColorMatrix values="0.285 0 0 0 0.078  0.166 0 0 0 0.040  0.083 0 0 0 0.020  0 0 0 0 1"/></filter><filter id="v5" x="750" y="0" width="150" height="800" filterUnits="userSpaceOnUse"><feTurbulence type="fractalNoise" baseFrequency=".12 .0028" numOctaves="4" seed="75" stitchTiles="stitch"/><feColorMatrix values="0.285 0 0 0 0.062  0.166 0 0 0 0.032  0.083 0 0 0 0.016  0 0 0 0 1"/></filter><filter id="v6" x="900" y="0" width="150" height="800" filterUnits="userSpaceOnUse"><feTurbulence type="fractalNoise" baseFrequency=".12 .0028" numOctaves="4" seed="80" stitchTiles="stitch"/><feColorMatrix values="0.285 0 0 0 0.071  0.166 0 0 0 0.037  0.083 0 0 0 0.018  0 0 0 0 1"/></filter><filter id="v7" x="1050" y="0" width="150" height="800" filterUnits="userSpaceOnUse"><feTurbulence type="fractalNoise" baseFrequency=".12 .0028" numOctaves="4" seed="85" stitchTiles="stitch"/><feColorMatrix values="0.285 0 0 0 0.066  0.166 0 0 0 0.034  0.083 0 0 0 0.017  0 0 0 0 1"/></filter></defs><rect x="0" width="150" height="800" filter="url(#v0)"/><rect x="146" width="4" height="800" fill="#040201" opacity=".9"/><rect x="145" width="1" height="800" fill="#e8b06a" opacity=".08"/><rect x="18" width="2" height="800" fill="#040201" opacity=".5"/><rect x="20" width="1" height="800" fill="#e8b06a" opacity=".07"/><rect x="150" width="150" height="800" filter="url(#v1)"/><rect x="296" width="4" height="800" fill="#040201" opacity=".9"/><rect x="295" width="1" height="800" fill="#e8b06a" opacity=".08"/><rect x="168" width="2" height="800" fill="#040201" opacity=".5"/><rect x="170" width="1" height="800" fill="#e8b06a" opacity=".07"/><rect x="300" width="150" height="800" filter="url(#v2)"/><rect x="446" width="4" height="800" fill="#040201" opacity=".9"/><rect x="445" width="1" height="800" fill="#e8b06a" opacity=".08"/><rect x="318" width="2" height="800" fill="#040201" opacity=".5"/><rect x="320" width="1" height="800" fill="#e8b06a" opacity=".07"/><rect x="450" width="150" height="800" filter="url(#v3)"/><rect x="596" width="4" height="800" fill="#040201" opacity=".9"/><rect x="595" width="1" height="800" fill="#e8b06a" opacity=".08"/><rect x="468" width="2" height="800" fill="#040201" opacity=".5"/><rect x="470" width="1" height="800" fill="#e8b06a" opacity=".07"/><rect x="600" width="150" height="800" filter="url(#v4)"/><rect x="746" width="4" height="800" fill="#040201" opacity=".9"/><rect x="745" width="1" height="800" fill="#e8b06a" opacity=".08"/><rect x="618" width="2" height="800" fill="#040201" opacity=".5"/><rect x="620" width="1" height="800" fill="#e8b06a" opacity=".07"/><rect x="750" width="150" height="800" filter="url(#v5)"/><rect x="896" width="4" height="800" fill="#040201" opacity=".9"/><rect x="895" width="1" height="800" fill="#e8b06a" opacity=".08"/><rect x="768" width="2" height="800" fill="#040201" opacity=".5"/><rect x="770" width="1" height="800" fill="#e8b06a" opacity=".07"/><rect x="900" width="150" height="800" filter="url(#v6)"/><rect x="1046" width="4" height="800" fill="#040201" opacity=".9"/><rect x="1045" width="1" height="800" fill="#e8b06a" opacity=".08"/><rect x="918" width="2" height="800" fill="#040201" opacity=".5"/><rect x="920" width="1" height="800" fill="#e8b06a" opacity=".07"/><rect x="1050" width="150" height="800" filter="url(#v7)"/><rect x="1196" width="4" height="800" fill="#040201" opacity=".9"/><rect x="1195" width="1" height="800" fill="#e8b06a" opacity=".08"/><rect x="1068" width="2" height="800" fill="#040201" opacity=".5"/><rect x="1070" width="1" height="800" fill="#e8b06a" opacity=".07"/></svg>
