<svg xmlns="http://www.w3.org/2000/svg" viewBox="0 0 800 560" width="800" height="560">
<defs>
<linearGradient id="bg" x1="0" y1="0" x2="0" y2="1"><stop offset="0" stop-color="#2a170a"/><stop offset="1" stop-color="#150a04"/></linearGradient>
<radialGradient id="vig" cx=".5" cy=".5" r=".78"><stop offset=".5" stop-color="#2a1405" stop-opacity="0"/><stop offset="1" stop-color="#2a1405" stop-opacity=".62"/></radialGradient>
<filter id="grain" x="0" y="0" width="100%" height="100%"><feTurbulence type="fractalNoise" baseFrequency=".85" numOctaves="3" seed="11" stitchTiles="stitch"/><feColorMatrix values="0 0 0 0 .2  0 0 0 0 .11  0 0 0 0 .04  1.7 0 0 0 -.62"/></filter>
<filter id="blur8"><feGaussianBlur stdDeviation="8"/></filter>
<filter id="blur3"><feGaussianBlur stdDeviation="3"/></filter>
<radialGradient id="glow" cx=".5" cy=".4" r=".7"><stop offset="0" stop-color="#e8a640" stop-opacity=".9"/><stop offset=".55" stop-color="#8a4e14" stop-opacity=".5"/><stop offset="1" stop-color="#1b0e06" stop-opacity="0"/></radialGradient>
<linearGradient id="wallbg" x1="0" y1="0" x2="0" y2="1"><stop offset="0" stop-color="#3a2210"/><stop offset="1" stop-color="#150a04"/></linearGradient>
<linearGradient id="counter" x1="0" y1="0" x2="0" y2="1"><stop offset="0" stop-color="#7a4a22"/><stop offset=".12" stop-color="#4a2a12"/><stop offset="1" stop-color="#1e1007"/></linearGradient>
<linearGradient id="lamp" x1="0" y1="0" x2="0" y2="1"><stop offset="0" stop-color="#d9a14a"/><stop offset="1" stop-color="#6b4416"/></linearGradient>
</defs>
<rect width="800" height="560" fill="url(#bg)"/>
<rect width="800" height="560" fill="url(#wallbg)"/><rect width="800" height="560" fill="url(#glow)"/><rect x="40" y="205" width="720" height="10" fill="#4a2c14" stroke="#2b1a0f" stroke-width="2"/><path d="M62.0,205 L62.0,158.5 C62.0,149.2 72.4,148.6 72.4,146.1 L72.4,127.0 L79.6,127.0 L79.6,146.1 C79.6,148.6 90.0,149.2 90.0,158.5 L90.0,205 Z" fill="#d9c79a" stroke="#2b1a0f" stroke-width="3" stroke-linejoin="round"/><rect x="70.4" y="122.0" width="11.3" height="5.0" rx="2" fill="#1b0e06" stroke="#2b1a0f" stroke-width="2"/><rect x="65.4" y="164.5" width="2.8" height="32.5" rx="1.4" fill="#fff" opacity=".22"/><path d="M104.0,205 L104.0,162.4 C104.0,153.9 118.4,153.3 118.4,151.0 L118.4,133.6 L128.6,133.6 L128.6,151.0 C128.6,153.3 143.0,153.9 143.0,162.4 L143.0,205 Z" fill="#7a2e1c" stroke="#2b1a0f" stroke-width="3" stroke-linejoin="round"/><rect x="116.4" y="129.0" width="14.1" height="4.6" rx="2" fill="#1b0e06" stroke="#2b1a0f" stroke-width="2"/><rect x="108.7" y="168.4" width="3.9" height="28.6" rx="2.0" fill="#fff" opacity=".22"/><path d="M152.0,205 L152.0,156.8 C152.0,147.2 164.6,146.5 164.6,143.9 L164.6,124.2 L173.4,124.2 L173.4,143.9 C173.4,146.5 186.0,147.2 186.0,156.8 L186.0,205 Z" fill="#3f2a18" stroke="#2b1a0f" stroke-width="3" stroke-linejoin="round"/><rect x="162.6" y="119.0" width="12.8" height="5.2" rx="2" fill="#1b0e06" stroke="#2b1a0f" stroke-width="2"/><rect x="156.1" y="162.8" width="3.4" height="34.2" rx="1.7" fill="#fff" opacity=".22"/><path d="M193.0,205 L193.0,149.6 C193.0,138.4 204.5,137.7 204.5,134.7 L204.5,111.9 L212.5,111.9 L212.5,134.7 C212.5,137.7 224.0,138.4 224.0,149.6 L224.0,205 Z" fill="#d9c79a" stroke="#2b1a0f" stroke-width="3" stroke-linejoin="round"/><rect x="202.5" y="106.0" width="12.1" height="5.9" rx="2" fill="#1b0e06" stroke="#2b1a0f" stroke-width="2"/><rect x="196.7" y="155.6" width="3.1" height="41.4" rx="1.6" fill="#fff" opacity=".22"/><rect x="196" y="167.4" width="25" height="21.8" fill="#f3e8cb" opacity=".75"/><path d="M234.0,205 L234.0,161.9 C234.0,153.2 248.8,152.6 248.8,150.3 L248.8,132.6 L259.2,132.6 L259.2,150.3 C259.2,152.6 274.0,153.2 274.0,161.9 L274.0,205 Z" fill="#8a4b12" stroke="#2b1a0f" stroke-width="3" stroke-linejoin="round"/><rect x="246.8" y="128.0" width="14.4" height="4.6" rx="2" fill="#1b0e06" stroke="#2b1a0f" stroke-width="2"/><rect x="238.8" y="167.9" width="4.0" height="29.1" rx="2.0" fill="#fff" opacity=".22"/><rect x="237" y="175.7" width="34" height="16.9" fill="#f3e8cb" opacity=".75"/><path d="M287.0,205 L287.0,158.0 C287.0,148.5 299.9,147.9 299.9,145.4 L299.9,126.0 L309.1,126.0 L309.1,145.4 C309.1,147.9 322.0,148.5 322.0,158.0 L322.0,205 Z" fill="#8a4b12" stroke="#2b1a0f" stroke-width="3" stroke-linejoin="round"/><rect x="297.9" y="121.0" width="13.1" height="5.0" rx="2" fill="#1b0e06" stroke="#2b1a0f" stroke-width="2"/><rect x="291.2" y="164.0" width="3.5" height="33.0" rx="1.8" fill="#fff" opacity=".22"/><path d="M336.0,205 L336.0,164.1 C336.0,155.9 349.7,155.4 349.7,153.2 L349.7,136.4 L359.3,136.4 L359.3,153.2 C359.3,155.4 373.0,155.9 373.0,164.1 L373.0,205 Z" fill="#6b3a1c" stroke="#2b1a0f" stroke-width="3" stroke-linejoin="round"/><rect x="347.7" y="132.0" width="13.6" height="4.4" rx="2" fill="#1b0e06" stroke="#2b1a0f" stroke-width="2"/><rect x="340.4" y="170.1" width="3.7" height="26.9" rx="1.9" fill="#fff" opacity=".22"/><rect x="339" y="177.3" width="31" height="16.1" fill="#f3e8cb" opacity=".75"/><path d="M381.0,205 L381.0,151.8 C381.0,141.1 391.0,140.4 391.0,137.6 L391.0,115.7 L398.0,115.7 L398.0,137.6 C398.0,140.4 408.0,141.1 408.0,151.8 L408.0,205 Z" fill="#8a4b12" stroke="#2b1a0f" stroke-width="3" stroke-linejoin="round"/><rect x="389.0" y="110.0" width="11.0" height="5.7" rx="2" fill="#1b0e06" stroke="#2b1a0f" stroke-width="2"/><rect x="384.2" y="157.8" width="2.7" height="39.2" rx="1.4" fill="#fff" opacity=".22"/><rect x="384" y="168.9" width="21" height="20.9" fill="#f3e8cb" opacity=".75"/><path d="M420.0,205 L420.0,157.4 C420.0,147.8 431.8,147.2 431.8,144.7 L431.8,125.1 L440.2,125.1 L440.2,144.7 C440.2,147.2 452.0,147.8 452.0,157.4 L452.0,205 Z" fill="#5c6b3a" stroke="#2b1a0f" stroke-width="3" stroke-linejoin="round"/><rect x="429.8" y="120.0" width="12.3" height="5.1" rx="2" fill="#1b0e06" stroke="#2b1a0f" stroke-width="2"/><rect x="423.8" y="163.4" width="3.2" height="33.6" rx="1.6" fill="#fff" opacity=".22"/><rect x="423" y="172.7" width="26" height="18.7" fill="#f3e8cb" opacity=".75"/><path d="M459.0,205 L459.0,150.7 C459.0,139.8 471.2,139.0 471.2,136.1 L471.2,113.8 L479.8,113.8 L479.8,136.1 C479.8,139.0 492.0,139.8 492.0,150.7 L492.0,205 Z" fill="#3f2a18" stroke="#2b1a0f" stroke-width="3" stroke-linejoin="round"/><rect x="469.2" y="108.0" width="12.6" height="5.8" rx="2" fill="#1b0e06" stroke="#2b1a0f" stroke-width="2"/><rect x="463.0" y="156.7" width="3.3" height="40.3" rx="1.7" fill="#fff" opacity=".22"/><rect x="462" y="168.1" width="27" height="21.3" fill="#f3e8cb" opacity=".75"/><path d="M502.0,205 L502.0,154.0 C502.0,143.8 512.7,143.1 512.7,140.4 L512.7,119.5 L520.3,119.5 L520.3,140.4 C520.3,143.1 531.0,143.8 531.0,154.0 L531.0,205 Z" fill="#a8641c" stroke="#2b1a0f" stroke-width="3" stroke-linejoin="round"/><rect x="510.7" y="114.0" width="11.5" height="5.5" rx="2" fill="#1b0e06" stroke="#2b1a0f" stroke-width="2"/><rect x="505.5" y="160.0" width="2.9" height="37.0" rx="1.5" fill="#fff" opacity=".22"/><rect x="505" y="170.4" width="23" height="20.0" fill="#f3e8cb" opacity=".75"/><path d="M545.0,205 L545.0,151.2 C545.0,140.4 557.6,139.7 557.6,136.8 L557.6,114.8 L566.4,114.8 L566.4,136.8 C566.4,139.7 579.0,140.4 579.0,151.2 L579.0,205 Z" fill="#d9c79a" stroke="#2b1a0f" stroke-width="3" stroke-linejoin="round"/><rect x="555.6" y="109.0" width="12.8" height="5.8" rx="2" fill="#1b0e06" stroke="#2b1a0f" stroke-width="2"/><rect x="549.1" y="157.2" width="3.4" height="39.8" rx="1.7" fill="#fff" opacity=".22"/><rect x="548" y="168.5" width="28" height="21.1" fill="#f3e8cb" opacity=".75"/><path d="M588.0,205 L588.0,156.3 C588.0,146.5 602.8,145.8 602.8,143.2 L602.8,123.2 L613.2,123.2 L613.2,143.2 C613.2,145.8 628.0,146.5 628.0,156.3 L628.0,205 Z" fill="#d9c79a" stroke="#2b1a0f" stroke-width="3" stroke-linejoin="round"/><rect x="600.8" y="118.0" width="14.4" height="5.2" rx="2" fill="#1b0e06" stroke="#2b1a0f" stroke-width="2"/><rect x="592.8" y="162.3" width="4.0" height="34.7" rx="2.0" fill="#fff" opacity=".22"/><rect x="591" y="171.9" width="34" height="19.1" fill="#f3e8cb" opacity=".75"/><path d="M642.0,205 L642.0,159.1 C642.0,149.9 654.6,149.2 654.6,146.8 L654.6,127.9 L663.4,127.9 L663.4,146.8 C663.4,149.2 676.0,149.9 676.0,159.1 L676.0,205 Z" fill="#6b3a1c" stroke="#2b1a0f" stroke-width="3" stroke-linejoin="round"/><rect x="652.6" y="123.0" width="12.8" height="4.9" rx="2" fill="#1b0e06" stroke="#2b1a0f" stroke-width="2"/><rect x="646.1" y="165.1" width="3.4" height="31.9" rx="1.7" fill="#fff" opacity=".22"/><path d="M689.0,205 L689.0,165.8 C689.0,157.9 700.1,157.4 700.1,155.3 L700.1,139.2 L707.9,139.2 L707.9,155.3 C707.9,157.4 719.0,157.9 719.0,165.8 L719.0,205 Z" fill="#a8641c" stroke="#2b1a0f" stroke-width="3" stroke-linejoin="round"/><rect x="698.1" y="135.0" width="11.8" height="4.2" rx="2" fill="#1b0e06" stroke="#2b1a0f" stroke-width="2"/><rect x="692.6" y="171.8" width="3.0" height="25.2" rx="1.5" fill="#fff" opacity=".22"/><rect x="692" y="178.4" width="24" height="15.4" fill="#f3e8cb" opacity=".75"/><rect x="40" y="330" width="720" height="10" fill="#4a2c14" stroke="#2b1a0f" stroke-width="2"/><path d="M62.0,330 L62.0,282.4 C62.0,272.8 71.6,272.2 71.6,269.6 L71.6,250.1 L78.4,250.1 L78.4,269.6 C78.4,272.2 88.0,272.8 88.0,282.4 L88.0,330 Z" fill="#a8641c" stroke="#2b1a0f" stroke-width="3" stroke-linejoin="round"/><rect x="69.6" y="245.0" width="10.8" height="5.1" rx="2" fill="#1b0e06" stroke="#2b1a0f" stroke-width="2"/><rect x="65.1" y="288.4" width="2.6" height="33.6" rx="1.3" fill="#fff" opacity=".22"/><rect x="65" y="297.7" width="20" height="18.7" fill="#f3e8cb" opacity=".75"/><path d="M98.0,330 L98.0,280.2 C98.0,270.1 111.0,269.5 111.0,266.8 L111.0,246.3 L120.0,246.3 L120.0,266.8 C120.0,269.5 133.0,270.1 133.0,280.2 L133.0,330 Z" fill="#6b3a1c" stroke="#2b1a0f" stroke-width="3" stroke-linejoin="round"/><rect x="109.0" y="241.0" width="13.1" height="5.3" rx="2" fill="#1b0e06" stroke="#2b1a0f" stroke-width="2"/><rect x="102.2" y="286.2" width="3.5" height="35.8" rx="1.8" fill="#fff" opacity=".22"/><rect x="101" y="296.2" width="29" height="19.6" fill="#f3e8cb" opacity=".75"/><path d="M141.0,330 L141.0,279.0 C141.0,268.8 151.4,268.1 151.4,265.4 L151.4,244.5 L158.6,244.5 L158.6,265.4 C158.6,268.1 169.0,268.8 169.0,279.0 L169.0,330 Z" fill="#5c6b3a" stroke="#2b1a0f" stroke-width="3" stroke-linejoin="round"/><rect x="149.4" y="239.0" width="11.3" height="5.5" rx="2" fill="#1b0e06" stroke="#2b1a0f" stroke-width="2"/><rect x="144.4" y="285.0" width="2.8" height="37.0" rx="1.4" fill="#fff" opacity=".22"/><path d="M181.0,330 L181.0,277.4 C181.0,266.8 192.5,266.1 192.5,263.3 L192.5,241.6 L200.5,241.6 L200.5,263.3 C200.5,266.1 212.0,266.8 212.0,277.4 L212.0,330 Z" fill="#b88a3c" stroke="#2b1a0f" stroke-width="3" stroke-linejoin="round"/><rect x="190.5" y="236.0" width="12.1" height="5.6" rx="2" fill="#1b0e06" stroke="#2b1a0f" stroke-width="2"/><rect x="184.7" y="283.4" width="3.1" height="38.6" rx="1.6" fill="#fff" opacity=".22"/><rect x="184" y="294.3" width="25" height="20.7" fill="#f3e8cb" opacity=".75"/><path d="M221.0,330 L221.0,274.6 C221.0,263.4 231.0,262.7 231.0,259.7 L231.0,236.9 L238.0,236.9 L238.0,259.7 C238.0,262.7 248.0,263.4 248.0,274.6 L248.0,330 Z" fill="#5c6b3a" stroke="#2b1a0f" stroke-width="3" stroke-linejoin="round"/><rect x="229.0" y="231.0" width="11.0" height="5.9" rx="2" fill="#1b0e06" stroke="#2b1a0f" stroke-width="2"/><rect x="224.2" y="280.6" width="2.7" height="41.4" rx="1.4" fill="#fff" opacity=".22"/><path d="M260.0,330 L260.0,279.0 C260.0,268.8 270.4,268.1 270.4,265.4 L270.4,244.5 L277.6,244.5 L277.6,265.4 C277.6,268.1 288.0,268.8 288.0,279.0 L288.0,330 Z" fill="#8a4b12" stroke="#2b1a0f" stroke-width="3" stroke-linejoin="round"/><rect x="268.4" y="239.0" width="11.3" height="5.5" rx="2" fill="#1b0e06" stroke="#2b1a0f" stroke-width="2"/><rect x="263.4" y="285.0" width="2.8" height="37.0" rx="1.4" fill="#fff" opacity=".22"/><path d="M298.0,330 L298.0,274.6 C298.0,263.4 309.8,262.7 309.8,259.7 L309.8,236.9 L318.2,236.9 L318.2,259.7 C318.2,262.7 330.0,263.4 330.0,274.6 L330.0,330 Z" fill="#5c6b3a" stroke="#2b1a0f" stroke-width="3" stroke-linejoin="round"/><rect x="307.8" y="231.0" width="12.3" height="5.9" rx="2" fill="#1b0e06" stroke="#2b1a0f" stroke-width="2"/><rect x="301.8" y="280.6" width="3.2" height="41.4" rx="1.6" fill="#fff" opacity=".22"/><path d="M337.0,330 L337.0,284.6 C337.0,275.5 351.8,274.9 351.8,272.5 L351.8,253.9 L362.2,253.9 L362.2,272.5 C362.2,274.9 377.0,275.5 377.0,284.6 L377.0,330 Z" fill="#7a2e1c" stroke="#2b1a0f" stroke-width="3" stroke-linejoin="round"/><rect x="349.8" y="249.0" width="14.4" height="4.9" rx="2" fill="#1b0e06" stroke="#2b1a0f" stroke-width="2"/><rect x="341.8" y="290.6" width="4.0" height="31.4" rx="2.0" fill="#fff" opacity=".22"/><rect x="340" y="299.2" width="34" height="17.8" fill="#f3e8cb" opacity=".75"/><path d="M387.0,330 L387.0,275.1 C387.0,264.1 401.8,263.4 401.8,260.4 L401.8,237.9 L412.2,237.9 L412.2,260.4 C412.2,263.4 427.0,264.1 427.0,275.1 L427.0,330 Z" fill="#3f2a18" stroke="#2b1a0f" stroke-width="3" stroke-linejoin="round"/><rect x="399.8" y="232.0" width="14.4" height="5.9" rx="2" fill="#1b0e06" stroke="#2b1a0f" stroke-width="2"/><rect x="391.8" y="281.1" width="4.0" height="40.9" rx="2.0" fill="#fff" opacity=".22"/><rect x="390" y="292.8" width="34" height="21.6" fill="#f3e8cb" opacity=".75"/><path d="M435.0,330 L435.0,276.8 C435.0,266.1 447.2,265.4 447.2,262.6 L447.2,240.7 L455.8,240.7 L455.8,262.6 C455.8,265.4 468.0,266.1 468.0,276.8 L468.0,330 Z" fill="#d9c79a" stroke="#2b1a0f" stroke-width="3" stroke-linejoin="round"/><rect x="445.2" y="235.0" width="12.6" height="5.7" rx="2" fill="#1b0e06" stroke="#2b1a0f" stroke-width="2"/><rect x="439.0" y="282.8" width="3.3" height="39.2" rx="1.7" fill="#fff" opacity=".22"/><path d="M482.0,330 L482.0,276.2 C482.0,265.4 491.6,264.7 491.6,261.8 L491.6,239.8 L498.4,239.8 L498.4,261.8 C498.4,264.7 508.0,265.4 508.0,276.2 L508.0,330 Z" fill="#b88a3c" stroke="#2b1a0f" stroke-width="3" stroke-linejoin="round"/><rect x="489.6" y="234.0" width="10.8" height="5.8" rx="2" fill="#1b0e06" stroke="#2b1a0f" stroke-width="2"/><rect x="485.1" y="282.2" width="2.6" height="39.8" rx="1.3" fill="#fff" opacity=".22"/><rect x="485" y="293.5" width="20" height="21.1" fill="#f3e8cb" opacity=".75"/><path d="M519.0,330 L519.0,285.8 C519.0,276.9 532.3,276.3 532.3,273.9 L532.3,255.7 L541.7,255.7 L541.7,273.9 C541.7,276.3 555.0,276.9 555.0,285.8 L555.0,330 Z" fill="#8a4b12" stroke="#2b1a0f" stroke-width="3" stroke-linejoin="round"/><rect x="530.3" y="251.0" width="13.4" height="4.7" rx="2" fill="#1b0e06" stroke="#2b1a0f" stroke-width="2"/><rect x="523.3" y="291.8" width="3.6" height="30.2" rx="1.8" fill="#fff" opacity=".22"/><rect x="522" y="300.0" width="30" height="17.4" fill="#f3e8cb" opacity=".75"/><path d="M564.0,330 L564.0,289.7 C564.0,281.6 575.8,281.0 575.8,278.9 L575.8,262.3 L584.2,262.3 L584.2,278.9 C584.2,281.0 596.0,281.6 596.0,289.7 L596.0,330 Z" fill="#6b3a1c" stroke="#2b1a0f" stroke-width="3" stroke-linejoin="round"/><rect x="573.8" y="258.0" width="12.3" height="4.3" rx="2" fill="#1b0e06" stroke="#2b1a0f" stroke-width="2"/><rect x="567.8" y="295.7" width="3.2" height="26.3" rx="1.6" fill="#fff" opacity=".22"/><path d="M605.0,330 L605.0,277.9 C605.0,267.5 615.4,266.8 615.4,264.0 L615.4,242.6 L622.6,242.6 L622.6,264.0 C622.6,266.8 633.0,267.5 633.0,277.9 L633.0,330 Z" fill="#7a2e1c" stroke="#2b1a0f" stroke-width="3" stroke-linejoin="round"/><rect x="613.4" y="237.0" width="11.3" height="5.6" rx="2" fill="#1b0e06" stroke="#2b1a0f" stroke-width="2"/><rect x="608.4" y="283.9" width="2.8" height="38.1" rx="1.4" fill="#fff" opacity=".22"/><rect x="608" y="294.7" width="22" height="20.5" fill="#f3e8cb" opacity=".75"/><path d="M642.0,330 L642.0,281.8 C642.0,272.2 655.3,271.5 655.3,268.9 L655.3,249.2 L664.7,249.2 L664.7,268.9 C664.7,271.5 678.0,272.2 678.0,281.8 L678.0,330 Z" fill="#7a2e1c" stroke="#2b1a0f" stroke-width="3" stroke-linejoin="round"/><rect x="653.3" y="244.0" width="13.4" height="5.2" rx="2" fill="#1b0e06" stroke="#2b1a0f" stroke-width="2"/><rect x="646.3" y="287.8" width="3.6" height="34.2" rx="1.8" fill="#fff" opacity=".22"/><rect x="645" y="297.3" width="30" height="18.9" fill="#f3e8cb" opacity=".75"/><line x1="170" y1="0" x2="170" y2="62" stroke="#2b1a0f" stroke-width="3"/><path d="M158,62 L182,62 L214,108 L126,108 Z" fill="url(#lamp)" stroke="#2b1a0f" stroke-width="3"/><ellipse cx="170" cy="110" rx="46" ry="62" fill="#e8b255" opacity=".38" filter="url(#blur8)"/><ellipse cx="170" cy="110" rx="26" ry="10" fill="#fff0c0"/><line x1="400" y1="0" x2="400" y2="62" stroke="#2b1a0f" stroke-width="3"/><path d="M388,62 L412,62 L444,108 L356,108 Z" fill="url(#lamp)" stroke="#2b1a0f" stroke-width="3"/><ellipse cx="400" cy="110" rx="46" ry="62" fill="#e8b255" opacity=".38" filter="url(#blur8)"/><ellipse cx="400" cy="110" rx="26" ry="10" fill="#fff0c0"/><line x1="630" y1="0" x2="630" y2="62" stroke="#2b1a0f" stroke-width="3"/><path d="M618,62 L642,62 L674,108 L586,108 Z" fill="url(#lamp)" stroke="#2b1a0f" stroke-width="3"/><ellipse cx="630" cy="110" rx="46" ry="62" fill="#e8b255" opacity=".38" filter="url(#blur8)"/><ellipse cx="630" cy="110" rx="26" ry="10" fill="#fff0c0"/><rect x="0" y="430" width="800" height="130" fill="url(#counter)"/><rect x="0" y="424" width="800" height="18" fill="#8a5a2c" stroke="#2b1a0f" stroke-width="3"/><rect x="0" y="436" width="800" height="4" fill="#000" opacity=".4"/><polygon points="101.0,380.0 139.0,380.0 135.0,424.0 105.0,424.0" fill="#fff" fill-opacity=".16" stroke="#2b1a0f" stroke-width="3" stroke-linejoin="round"/><polygon points="102.8,399.8 137.2,399.8 135.8,415.2 104.2,415.2" fill="url(#bliq)"/><ellipse cx="120.0" cy="399.8" rx="17.2" ry="1.7" fill="#e8b255" opacity=".9" stroke="#2b1a0f" stroke-width="1.5"/><polygon points="104.2,415.2 135.8,415.2 129.0,420.0 111.0,420.0" fill="#fff" opacity=".28"/><path d="M110.0,390.0 L117.0,410.0" stroke="#fff" stroke-width="6" opacity=".4" stroke-linecap="round"/><polygon points="281.0,380.0 319.0,380.0 315.0,424.0 285.0,424.0" fill="#fff" fill-opacity=".16" stroke="#2b1a0f" stroke-width="3" stroke-linejoin="round"/><polygon points="282.8,399.8 317.2,399.8 315.8,415.2 284.2,415.2" fill="url(#bliq)"/><ellipse cx="300.0" cy="399.8" rx="17.2" ry="1.7" fill="#e8b255" opacity=".9" stroke="#2b1a0f" stroke-width="1.5"/><polygon points="284.2,415.2 315.8,415.2 309.0,420.0 291.0,420.0" fill="#fff" opacity=".28"/><path d="M290.0,390.0 L297.0,410.0" stroke="#fff" stroke-width="6" opacity=".4" stroke-linecap="round"/><polygon points="501.0,380.0 539.0,380.0 535.0,424.0 505.0,424.0" fill="#fff" fill-opacity=".16" stroke="#2b1a0f" stroke-width="3" stroke-linejoin="round"/><polygon points="502.8,399.8 537.2,399.8 535.8,415.2 504.2,415.2" fill="url(#bliq)"/><ellipse cx="520.0" cy="399.8" rx="17.2" ry="1.7" fill="#e8b255" opacity=".9" stroke="#2b1a0f" stroke-width="1.5"/><polygon points="504.2,415.2 535.8,415.2 529.0,420.0 511.0,420.0" fill="#fff" opacity=".28"/><path d="M510.0,390.0 L517.0,410.0" stroke="#fff" stroke-width="6" opacity=".4" stroke-linecap="round"/><polygon points="671.0,380.0 709.0,380.0 705.0,424.0 675.0,424.0" fill="#fff" fill-opacity=".16" stroke="#2b1a0f" stroke-width="3" stroke-linejoin="round"/><polygon points="672.8,399.8 707.2,399.8 705.8,415.2 674.2,415.2" fill="url(#bliq)"/><ellipse cx="690.0" cy="399.8" rx="17.2" ry="1.7" fill="#e8b255" opacity=".9" stroke="#2b1a0f" stroke-width="1.5"/><polygon points="674.2,415.2 705.8,415.2 699.0,420.0 681.0,420.0" fill="#fff" opacity=".28"/><path d="M680.0,390.0 L687.0,410.0" stroke="#fff" stroke-width="6" opacity=".4" stroke-linecap="round"/><linearGradient id="bliq" x1="0" y1="0" x2="1" y2="1"><stop offset="0" stop-color="#e3a54a"/><stop offset=".6" stop-color="#c9822b"/><stop offset="1" stop-color="#8a4e14"/></linearGradient><ellipse cx="90" cy="488" rx="40" ry="10" fill="#0f0703" stroke="#c9822b" stroke-opacity=".5" stroke-width="2"/><rect x="85" y="498" width="10" height="62" fill="#0f0703"/><ellipse cx="260" cy="488" rx="40" ry="10" fill="#0f0703" stroke="#c9822b" stroke-opacity=".5" stroke-width="2"/><rect x="255" y="498" width="10" height="62" fill="#0f0703"/><ellipse cx="430" cy="488" rx="40" ry="10" fill="#0f0703" stroke="#c9822b" stroke-opacity=".5" stroke-width="2"/><rect x="425" y="498" width="10" height="62" fill="#0f0703"/><ellipse cx="600" cy="488" rx="40" ry="10" fill="#0f0703" stroke="#c9822b" stroke-opacity=".5" stroke-width="2"/><rect x="595" y="498" width="10" height="62" fill="#0f0703"/><ellipse cx="740" cy="488" rx="40" ry="10" fill="#0f0703" stroke="#c9822b" stroke-opacity=".5" stroke-width="2"/><rect x="735" y="498" width="10" height="62" fill="#0f0703"/>
<rect width="800" height="560" fill="url(#vig)"/>
<rect width="800" height="560" filter="url(#grain)" opacity=".42"/>
</svg>
