<svg xmlns="http://www.w3.org/2000/svg" viewBox="0 0 600 800" width="600" height="800">
<defs>
<linearGradient id="bg" x1="0" y1="0" x2="0" y2="1"><stop offset="0" stop-color="#efe0bd"/><stop offset="1" stop-color="#d4bc89"/></linearGradient>
<radialGradient id="vig" cx=".5" cy=".5" r=".78"><stop offset=".5" stop-color="#2a1405" stop-opacity="0"/><stop offset="1" stop-color="#2a1405" stop-opacity=".62"/></radialGradient>
<filter id="grain" x="0" y="0" width="100%" height="100%"><feTurbulence type="fractalNoise" baseFrequency=".85" numOctaves="3" seed="11" stitchTiles="stitch"/><feColorMatrix values="0 0 0 0 .2  0 0 0 0 .11  0 0 0 0 .04  1.7 0 0 0 -.62"/></filter>
<filter id="blur8"><feGaussianBlur stdDeviation="8"/></filter>
<filter id="blur3"><feGaussianBlur stdDeviation="3"/></filter>
<clipPath id="pole"><rect x="250" y="262" width="100" height="372" rx="6"/></clipPath>
<linearGradient id="shade" x1="0" y1="0" x2="1" y2="0"><stop offset="0" stop-color="#000" stop-opacity=".45"/><stop offset=".25" stop-color="#fff" stop-opacity=".35"/><stop offset=".45" stop-color="#fff" stop-opacity="0"/><stop offset="1" stop-color="#000" stop-opacity=".55"/></linearGradient>
</defs>
<rect width="600" height="800" fill="url(#bg)"/>
<rect x="40" y="40" width="520" height="720" fill="none" stroke="#8f2d24" stroke-width="10"/><rect x="56" y="56" width="488" height="688" fill="none" stroke="#8f2d24" stroke-width="2"/><text x="300" y="128" font-family="'Times New Roman', Times, 'Liberation Serif', Georgia, serif" font-size="46" font-weight="bold" font-style="normal" text-anchor="middle" letter-spacing="1" fill="#8f2d24" >SHAVE &amp; HAIRCUT</text><text x="300" y="164" font-family="'Times New Roman', Times, 'Liberation Serif', Georgia, serif" font-size="17" font-weight="normal" font-style="normal" text-anchor="middle" letter-spacing="3" fill="#2b1a0f" >~ HOT TOWEL · STRAIGHT RAZOR ~</text><g transform="translate(130 330) rotate(-18) scale(1 1)"><ellipse cx="-22" cy="86" rx="22" ry="30" fill="none" stroke="#2b1a0f" stroke-width="7"/><ellipse cx="22" cy="86" rx="22" ry="30" fill="none" stroke="#2b1a0f" stroke-width="7"/><path d="M-16,58 L26,-78 L34,-74 L-6,60 Z" fill="#c8c0b0" stroke="#2b1a0f" stroke-width="3"/><path d="M16,58 L-26,-78 L-34,-74 L6,60 Z" fill="#a9a190" stroke="#2b1a0f" stroke-width="3"/><circle cx="0" cy="52" r="6" fill="#2b1a0f"/></g><g transform="translate(470 330) rotate(18) scale(-1 1)"><ellipse cx="-22" cy="86" rx="22" ry="30" fill="none" stroke="#2b1a0f" stroke-width="7"/><ellipse cx="22" cy="86" rx="22" ry="30" fill="none" stroke="#2b1a0f" stroke-width="7"/><path d="M-16,58 L26,-78 L34,-74 L-6,60 Z" fill="#c8c0b0" stroke="#2b1a0f" stroke-width="3"/><path d="M16,58 L-26,-78 L-34,-74 L6,60 Z" fill="#a9a190" stroke="#2b1a0f" stroke-width="3"/><circle cx="0" cy="52" r="6" fill="#2b1a0f"/></g><ellipse cx="300" cy="640" rx="64" ry="14" fill="#2b1a0f" opacity=".3"/><rect x="262" y="640" width="76" height="40" fill="#5a4a30" stroke="#2b1a0f" stroke-width="3"/><rect x="250" y="634" width="100" height="14" rx="4" fill="#8a7040" stroke="#2b1a0f" stroke-width="3"/><circle cx="300" cy="236" r="16" fill="#b8893a" stroke="#2b1a0f" stroke-width="3"/><rect x="250" y="252" width="100" height="14" rx="4" fill="#8a7040" stroke="#2b1a0f" stroke-width="3"/><rect x="250" y="262" width="100" height="372" fill="#f3e8cb"/><g clip-path="url(#pole)"><polygon points="250,134 350,84 350,116 250,166" fill="#8f2d24"/><polygon points="250,166 350,116 350,148 250,198" fill="#f3e8cb"/><polygon points="250,198 350,148 350,180 250,230" fill="#34507f"/><polygon points="250,198 350,148 350,180 250,230" fill="#8f2d24"/><polygon points="250,230 350,180 350,212 250,262" fill="#f3e8cb"/><polygon points="250,262 350,212 350,244 250,294" fill="#34507f"/><polygon points="250,262 350,212 350,244 250,294" fill="#8f2d24"/><polygon points="250,294 350,244 350,276 250,326" fill="#f3e8cb"/><polygon points="250,326 350,276 350,308 250,358" fill="#34507f"/><polygon points="250,326 350,276 350,308 250,358" fill="#8f2d24"/><polygon points="250,358 350,308 350,340 250,390" fill="#f3e8cb"/><polygon points="250,390 350,340 350,372 250,422" fill="#34507f"/><polygon points="250,390 350,340 350,372 250,422" fill="#8f2d24"/><polygon points="250,422 350,372 350,404 250,454" fill="#f3e8cb"/><polygon points="250,454 350,404 350,436 250,486" fill="#34507f"/><polygon points="250,454 350,404 350,436 250,486" fill="#8f2d24"/><polygon points="250,486 350,436 350,468 250,518" fill="#f3e8cb"/><polygon points="250,518 350,468 350,500 250,550" fill="#34507f"/><polygon points="250,518 350,468 350,500 250,550" fill="#8f2d24"/><polygon points="250,550 350,500 350,532 250,582" fill="#f3e8cb"/><polygon points="250,582 350,532 350,564 250,614" fill="#34507f"/><polygon points="250,582 350,532 350,564 250,614" fill="#8f2d24"/><polygon points="250,614 350,564 350,596 250,646" fill="#f3e8cb"/><polygon points="250,646 350,596 350,628 250,678" fill="#34507f"/><polygon points="250,646 350,596 350,628 250,678" fill="#8f2d24"/><polygon points="250,678 350,628 350,660 250,710" fill="#f3e8cb"/><polygon points="250,710 350,660 350,692 250,742" fill="#34507f"/><polygon points="250,710 350,660 350,692 250,742" fill="#8f2d24"/><polygon points="250,742 350,692 350,724 250,774" fill="#f3e8cb"/><polygon points="250,774 350,724 350,756 250,806" fill="#34507f"/><polygon points="250,774 350,724 350,756 250,806" fill="#8f2d24"/><polygon points="250,806 350,756 350,788 250,838" fill="#f3e8cb"/><polygon points="250,838 350,788 350,820 250,870" fill="#34507f"/><polygon points="250,838 350,788 350,820 250,870" fill="#8f2d24"/><polygon points="250,870 350,820 350,852 250,902" fill="#f3e8cb"/><polygon points="250,902 350,852 350,884 250,934" fill="#34507f"/><polygon points="250,902 350,852 350,884 250,934" fill="#8f2d24"/><polygon points="250,934 350,884 350,916 250,966" fill="#f3e8cb"/><polygon points="250,966 350,916 350,948 250,998" fill="#34507f"/><polygon points="250,966 350,916 350,948 250,998" fill="#8f2d24"/><polygon points="250,998 350,948 350,980 250,1030" fill="#f3e8cb"/><polygon points="250,1030 350,980 350,1012 250,1062" fill="#34507f"/></g><rect x="250" y="262" width="100" height="372" rx="6" fill="url(#shade)"/><rect x="250" y="262" width="100" height="372" rx="6" fill="none" stroke="#2b1a0f" stroke-width="4"/><text x="300" y="726" font-family="'Times New Roman', Times, 'Liberation Serif', Georgia, serif" font-size="54" font-weight="bold" font-style="normal" text-anchor="middle" letter-spacing="6" fill="#2b1a0f" >TWO BITS</text>
<rect width="600" height="800" fill="url(#vig)"/>
<rect width="600" height="800" filter="url(#grain)" opacity=".42"/>
</svg>
